<?xml version="1.0" standalone="no"?>
<svg xmlns="http://www.w3.org/2000/svg" width="1000" height="1300" viewBox="0 0 1000 1300"><defs><clipPath id="clip-path-dot-color"><path d="M 153 322v 21h 10.5a 10.5 10.5, 0, 0, 0, 0 -21" transform="rotate(-90,163.5,332.5)"/><rect x="153" y="343" width="21" height="21" transform="rotate(0,163.5,353.5)"/><path d="M 153 364v 21h 21a 21 21, 0, 0, 0, -21 -21" transform="rotate(180,163.5,374.5)"/><circle cx="163.5" cy="416.5" r="10.5" transform="rotate(0,163.5,416.5)"/><path d="M 153 448v 21h 21a 21 21, 0, 0, 0, -21 -21" transform="rotate(-90,163.5,458.5)"/><rect x="153" y="469" width="21" height="21" transform="rotate(0,163.5,479.5)"/><rect x="153" y="490" width="21" height="21" transform="rotate(0,163.5,500.5)"/><rect x="153" y="511" width="21" height="21" transform="rotate(0,163.5,521.5)"/><rect x="153" y="532" width="21" height="21" transform="rotate(0,163.5,542.5)"/><rect x="153" y="553" width="21" height="21" transform="rotate(0,163.5,563.5)"/><rect x="153" y="574" width="21" height="21" transform="rotate(0,163.5,584.5)"/><path d="M 153 595v 21h 10.5a 10.5 10.5, 0, 0, 0, 0 -21" transform="rotate(90,163.5,605.5)"/><path d="M 174 343v 21h 21a 21 21, 0, 0, 0, -21 -21" transform="rotate(0,184.5,353.5)"/><path d="M 174 364v 21h 21a 21 21, 0, 0, 0, -21 -21" transform="rotate(90,184.5,374.5)"/><path d="M 174 427v 21h 21a 21 21, 0, 0, 0, -21 -21" transform="rotate(-90,184.5,437.5)"/><rect x="174" y="448" width="21" height="21" transform="rotate(0,184.5,458.5)"/><path d="M 174 469v 21h 21a 21 21, 0, 0, 0, -21 -21" transform="rotate(90,184.5,479.5)"/><rect x="174" y="511" width="21" height="21" transform="rotate(0,184.5,521.5)"/><path d="M 174 616v 21h 10.5a 10.5 10.5, 0, 0, 0, 0 -21" transform="rotate(180,184.5,626.5)"/><circle cx="184.5" cy="668.5" r="10.5" transform="rotate(0,184.5,668.5)"/><path d="M 195 385v 21h 10.5a 10.5 10.5, 0, 0, 0, 0 -21" transform="rotate(180,205.5,395.5)"/><path d="M 195 427v 21h 21a 21 21, 0, 0, 0, -21 -21" transform="rotate(0,205.5,437.5)"/><path d="M 195 448v 21h 21a 21 21, 0, 0, 0, -21 -21" transform="rotate(90,205.5,458.5)"/><path d="M 195 511v 21h 21a 21 21, 0, 0, 0, -21 -21" transform="rotate(0,205.5,521.5)"/><rect x="195" y="532" width="21" height="21" transform="rotate(0,205.5,542.5)"/><path d="M 195 553v 21h 10.5a 10.5 10.5, 0, 0, 0, 0 -21" transform="rotate(90,205.5,563.5)"/><path d="M 195 595v 21h 10.5a 10.5 10.5, 0, 0, 0, 0 -21" transform="rotate(-90,205.5,605.5)"/><rect x="195" y="616" width="21" height="21" transform="rotate(0,205.5,626.5)"/><path d="M 195 637v 21h 10.5a 10.5 10.5, 0, 0, 0, 0 -21" transform="rotate(90,205.5,647.5)"/><circle cx="226.5" cy="353.5" r="10.5" transform="rotate(0,226.5,353.5)"/><path d="M 216 385v 21h 21a 21 21, 0, 0, 0, -21 -21" transform="rotate(0,226.5,395.5)"/><path d="M 216 406v 21h 10.5a 10.5 10.5, 0, 0, 0, 0 -21" transform="rotate(90,226.5,416.5)"/><circle cx="226.5" cy="500.5" r="10.5" transform="rotate(0,226.5,500.5)"/><circle cx="226.5" cy="584.5" r="10.5" transform="rotate(0,226.5,584.5)"/><path d="M 237 322v 21h 10.5a 10.5 10.5, 0, 0, 0, 0 -21" transform="rotate(180,247.5,332.5)"/><path d="M 237 364v 21h 10.5a 10.5 10.5, 0, 0, 0, 0 -21" transform="rotate(180,247.5,374.5)"/><path d="M 237 448v 21h 10.5a 10.5 10.5, 0, 0, 0, 0 -21" transform="rotate(180,247.5,458.5)"/><circle cx="247.5" cy="542.5" r="10.5" transform="rotate(0,247.5,542.5)"/><path d="M 237 595v 21h 10.5a 10.5 10.5, 0, 0, 0, 0 -21" transform="rotate(-90,247.5,605.5)"/><rect x="237" y="616" width="21" height="21" transform="rotate(0,247.5,626.5)"/><rect x="237" y="637" width="21" height="21" transform="rotate(0,247.5,647.5)"/><path d="M 237 658v 21h 10.5a 10.5 10.5, 0, 0, 0, 0 -21" transform="rotate(90,247.5,668.5)"/><rect x="258" y="322" width="21" height="21" transform="rotate(0,268.5,332.5)"/><rect x="258" y="364" width="21" height="21" transform="rotate(0,268.5,374.5)"/><rect x="258" y="385" width="21" height="21" transform="rotate(0,268.5,395.5)"/><path d="M 258 406v 21h 21a 21 21, 0, 0, 0, -21 -21" transform="rotate(180,268.5,416.5)"/><rect x="258" y="448" width="21" height="21" transform="rotate(0,268.5,458.5)"/><path d="M 258 469v 21h 10.5a 10.5 10.5, 0, 0, 0, 0 -21" transform="rotate(90,268.5,479.5)"/><path d="M 258 574v 21h 10.5a 10.5 10.5, 0, 0, 0, 0 -21" transform="rotate(180,268.5,584.5)"/><rect x="258" y="616" width="21" height="21" transform="rotate(0,268.5,626.5)"/><path d="M 279 322v 21h 10.5a 10.5 10.5, 0, 0, 0, 0 -21" transform="rotate(0,289.5,332.5)"/><path d="M 279 364v 21h 10.5a 10.5 10.5, 0, 0, 0, 0 -21" transform="rotate(0,289.5,374.5)"/><rect x="279" y="406" width="21" height="21" transform="rotate(0,289.5,416.5)"/><path d="M 279 448v 21h 10.5a 10.5 10.5, 0, 0, 0, 0 -21" transform="rotate(0,289.5,458.5)"/><circle cx="289.5" cy="500.5" r="10.5" transform="rotate(0,289.5,500.5)"/><path d="M 279 532v 21h 10.5a 10.5 10.5, 0, 0, 0, 0 -21" transform="rotate(180,289.5,542.5)"/><path d="M 279 574v 21h 10.5a 10.5 10.5, 0, 0, 0, 0 -21" transform="rotate(0,289.5,584.5)"/><path d="M 279 616v 21h 10.5a 10.5 10.5, 0, 0, 0, 0 -21" transform="rotate(0,289.5,626.5)"/><path d="M 279 658v 21h 10.5a 10.5 10.5, 0, 0, 0, 0 -21" transform="rotate(180,289.5,668.5)"/><path d="M 300 385v 21h 21a 21 21, 0, 0, 0, -21 -21" transform="rotate(-90,310.5,395.5)"/><rect x="300" y="406" width="21" height="21" transform="rotate(0,310.5,416.5)"/><path d="M 300 427v 21h 21a 21 21, 0, 0, 0, -21 -21" transform="rotate(180,310.5,437.5)"/><circle cx="310.5" cy="479.5" r="10.5" transform="rotate(0,310.5,479.5)"/><rect x="300" y="532" width="21" height="21" transform="rotate(0,310.5,542.5)"/><circle cx="310.5" cy="605.5" r="10.5" transform="rotate(0,310.5,605.5)"/><path d="M 300 658v 21h 10.5a 10.5 10.5, 0, 0, 0, 0 -21" transform="rotate(0,310.5,668.5)"/><path d="M 321 175v 21h 10.5a 10.5 10.5, 0, 0, 0, 0 -21" transform="rotate(-90,331.5,185.5)"/><rect x="321" y="196" width="21" height="21" transform="rotate(0,331.5,206.5)"/><rect x="321" y="217" width="21" height="21" transform="rotate(0,331.5,227.5)"/><rect x="321" y="238" width="21" height="21" transform="rotate(0,331.5,248.5)"/><rect x="321" y="259" width="21" height="21" transform="rotate(0,331.5,269.5)"/><rect x="321" y="280" width="21" height="21" transform="rotate(0,331.5,290.5)"/><path d="M 321 301v 21h 10.5a 10.5 10.5, 0, 0, 0, 0 -21" transform="rotate(90,331.5,311.5)"/><path d="M 321 364v 21h 10.5a 10.5 10.5, 0, 0, 0, 0 -21" transform="rotate(-90,331.5,374.5)"/><rect x="321" y="385" width="21" height="21" transform="rotate(0,331.5,395.5)"/><rect x="321" y="406" width="21" height="21" transform="rotate(0,331.5,416.5)"/><path d="M 321 427v 21h 21a 21 21, 0, 0, 0, -21 -21" transform="rotate(90,331.5,437.5)"/><path d="M 321 490v 21h 10.5a 10.5 10.5, 0, 0, 0, 0 -21" transform="rotate(-90,331.5,500.5)"/><rect x="321" y="511" width="21" height="21" transform="rotate(0,331.5,521.5)"/><path d="M 321 532v 21h 21a 21 21, 0, 0, 0, -21 -21" transform="rotate(90,331.5,542.5)"/><path d="M 321 721v 21h 10.5a 10.5 10.5, 0, 0, 0, 0 -21" transform="rotate(-90,331.5,731.5)"/><path d="M 321 742v 21h 10.5a 10.5 10.5, 0, 0, 0, 0 -21" transform="rotate(90,331.5,752.5)"/><path d="M 321 826v 21h 10.5a 10.5 10.5, 0, 0, 0, 0 -21" transform="rotate(180,331.5,836.5)"/><path d="M 342 154v 21h 10.5a 10.5 10.5, 0, 0, 0, 0 -21" transform="rotate(180,352.5,164.5)"/><rect x="342" y="196" width="21" height="21" transform="rotate(0,352.5,206.5)"/><rect x="342" y="217" width="21" height="21" transform="rotate(0,352.5,227.5)"/><rect x="342" y="238" width="21" height="21" transform="rotate(0,352.5,248.5)"/><circle cx="352.5" cy="332.5" r="10.5" transform="rotate(0,352.5,332.5)"/><path d="M 342 385v 21h 21a 21 21, 0, 0, 0, -21 -21" transform="rotate(0,352.5,395.5)"/><rect x="342" y="406" width="21" height="21" transform="rotate(0,352.5,416.5)"/><path d="M 342 448v 21h 21a 21 21, 0, 0, 0, -21 -21" transform="rotate(-90,352.5,458.5)"/><path d="M 342 469v 21h 10.5a 10.5 10.5, 0, 0, 0, 0 -21" transform="rotate(90,352.5,479.5)"/><path d="M 342 553v 21h 10.5a 10.5 10.5, 0, 0, 0, 0 -21" transform="rotate(-90,352.5,563.5)"/><rect x="342" y="574" width="21" height="21" transform="rotate(0,352.5,584.5)"/><rect x="342" y="595" width="21" height="21" transform="rotate(0,352.5,605.5)"/><rect x="342" y="616" width="21" height="21" transform="rotate(0,352.5,626.5)"/><rect x="342" y="637" width="21" height="21" transform="rotate(0,352.5,647.5)"/><path d="M 342 658v 21h 21a 21 21, 0, 0, 0, -21 -21" transform="rotate(180,352.5,668.5)"/><path d="M 342 805v 21h 10.5a 10.5 10.5, 0, 0, 0, 0 -21" transform="rotate(-90,352.5,815.5)"/><path d="M 342 826v 21h 21a 21 21, 0, 0, 0, -21 -21" transform="rotate(90,352.5,836.5)"/><path d="M 363 154v 21h 10.5a 10.5 10.5, 0, 0, 0, 0 -21" transform="rotate(0,373.5,164.5)"/><rect x="363" y="196" width="21" height="21" transform="rotate(0,373.5,206.5)"/><rect x="363" y="238" width="21" height="21" transform="rotate(0,373.5,248.5)"/><circle cx="373.5" cy="290.5" r="10.5" transform="rotate(0,373.5,290.5)"/><circle cx="373.5" cy="353.5" r="10.5" transform="rotate(0,373.5,353.5)"/><path d="M 363 406v 21h 10.5a 10.5 10.5, 0, 0, 0, 0 -21" transform="rotate(0,373.5,416.5)"/><path d="M 363 448v 21h 10.5a 10.5 10.5, 0, 0, 0, 0 -21" transform="rotate(0,373.5,458.5)"/><path d="M 363 490v 21h 10.5a 10.5 10.5, 0, 0, 0, 0 -21" transform="rotate(180,373.5,500.5)"/><circle cx="373.5" cy="542.5" r="10.5" transform="rotate(0,373.5,542.5)"/><path d="M 363 616v 21h 10.5a 10.5 10.5, 0, 0, 0, 0 -21" transform="rotate(0,373.5,626.5)"/><path d="M 363 658v 21h 10.5a 10.5 10.5, 0, 0, 0, 0 -21" transform="rotate(0,373.5,668.5)"/><circle cx="373.5" cy="731.5" r="10.5" transform="rotate(0,373.5,731.5)"/><path d="M 363 784v 21h 10.5a 10.5 10.5, 0, 0, 0, 0 -21" transform="rotate(180,373.5,794.5)"/><rect x="384" y="196" width="21" height="21" transform="rotate(0,394.5,206.5)"/><path d="M 384 238v 21h 21a 21 21, 0, 0, 0, -21 -21" transform="rotate(0,394.5,248.5)"/><path d="M 384 259v 21h 10.5a 10.5 10.5, 0, 0, 0, 0 -21" transform="rotate(90,394.5,269.5)"/><circle cx="394.5" cy="395.5" r="10.5" transform="rotate(0,394.5,395.5)"/><circle cx="394.5" cy="437.5" r="10.5" transform="rotate(0,394.5,437.5)"/><path d="M 384 469v 21h 10.5a 10.5 10.5, 0, 0, 0, 0 -21" transform="rotate(-90,394.5,479.5)"/><rect x="384" y="490" width="21" height="21" transform="rotate(0,394.5,500.5)"/><circle cx="394.5" cy="563.5" r="10.5" transform="rotate(0,394.5,563.5)"/><circle cx="394.5" cy="605.5" r="10.5" transform="rotate(0,394.5,605.5)"/><circle cx="394.5" cy="647.5" r="10.5" transform="rotate(0,394.5,647.5)"/><path d="M 384 679v 21h 10.5a 10.5 10.5, 0, 0, 0, 0 -21" transform="rotate(180,394.5,689.5)"/><path d="M 384 763v 21h 10.5a 10.5 10.5, 0, 0, 0, 0 -21" transform="rotate(-90,394.5,773.5)"/><path d="M 384 784v 21h 21a 21 21, 0, 0, 0, -21 -21" transform="rotate(90,394.5,794.5)"/><path d="M 405 175v 21h 21a 21 21, 0, 0, 0, -21 -21" transform="rotate(-90,415.5,185.5)"/><rect x="405" y="196" width="21" height="21" transform="rotate(0,415.5,206.5)"/><circle cx="415.5" cy="290.5" r="10.5" transform="rotate(0,415.5,290.5)"/><circle cx="415.5" cy="332.5" r="10.5" transform="rotate(0,415.5,332.5)"/><path d="M 405 364v 21h 10.5a 10.5 10.5, 0, 0, 0, 0 -21" transform="rotate(180,415.5,374.5)"/><rect x="405" y="490" width="21" height="21" transform="rotate(0,415.5,500.5)"/><circle cx="415.5" cy="542.5" r="10.5" transform="rotate(0,415.5,542.5)"/><path d="M 405 679v 21h 10.5a 10.5 10.5, 0, 0, 0, 0 -21" transform="rotate(0,415.5,689.5)"/><circle cx="415.5" cy="752.5" r="10.5" transform="rotate(0,415.5,752.5)"/><path d="M 405 805v 21h 10.5a 10.5 10.5, 0, 0, 0, 0 -21" transform="rotate(180,415.5,815.5)"/><path d="M 426 154v 21h 10.5a 10.5 10.5, 0, 0, 0, 0 -21" transform="rotate(-90,436.5,164.5)"/><rect x="426" y="175" width="21" height="21" transform="rotate(0,436.5,185.5)"/><path d="M 426 196v 21h 21a 21 21, 0, 0, 0, -21 -21" transform="rotate(90,436.5,206.5)"/><circle cx="436.5" cy="248.5" r="10.5" transform="rotate(0,436.5,248.5)"/><circle cx="436.5" cy="311.5" r="10.5" transform="rotate(0,436.5,311.5)"/><path d="M 426 364v 21h 10.5a 10.5 10.5, 0, 0, 0, 0 -21" transform="rotate(0,436.5,374.5)"/><circle cx="436.5" cy="416.5" r="10.5" transform="rotate(0,436.5,416.5)"/><rect x="426" y="490" width="21" height="21" transform="rotate(0,436.5,500.5)"/><path d="M 426 574v 21h 10.5a 10.5 10.5, 0, 0, 0, 0 -21" transform="rotate(-90,436.5,584.5)"/><rect x="426" y="595" width="21" height="21" transform="rotate(0,436.5,605.5)"/><rect x="426" y="616" width="21" height="21" transform="rotate(0,436.5,626.5)"/><rect x="426" y="637" width="21" height="21" transform="rotate(0,436.5,647.5)"/><path d="M 426 658v 21h 21a 21 21, 0, 0, 0, -21 -21" transform="rotate(180,436.5,668.5)"/><path d="M 426 700v 21h 10.5a 10.5 10.5, 0, 0, 0, 0 -21" transform="rotate(-90,436.5,710.5)"/><path d="M 426 721v 21h 10.5a 10.5 10.5, 0, 0, 0, 0 -21" transform="rotate(90,436.5,731.5)"/><path d="M 426 763v 21h 10.5a 10.5 10.5, 0, 0, 0, 0 -21" transform="rotate(-90,436.5,773.5)"/><rect x="426" y="784" width="21" height="21" transform="rotate(0,436.5,794.5)"/><rect x="426" y="805" width="21" height="21" transform="rotate(0,436.5,815.5)"/><path d="M 426 826v 21h 10.5a 10.5 10.5, 0, 0, 0, 0 -21" transform="rotate(90,436.5,836.5)"/><rect x="447" y="175" width="21" height="21" transform="rotate(0,457.5,185.5)"/><circle cx="457.5" cy="227.5" r="10.5" transform="rotate(0,457.5,227.5)"/><path d="M 447 259v 21h 10.5a 10.5 10.5, 0, 0, 0, 0 -21" transform="rotate(-90,457.5,269.5)"/><path d="M 447 280v 21h 10.5a 10.5 10.5, 0, 0, 0, 0 -21" transform="rotate(90,457.5,290.5)"/><path d="M 447 322v 21h 10.5a 10.5 10.5, 0, 0, 0, 0 -21" transform="rotate(180,457.5,332.5)"/><circle cx="457.5" cy="395.5" r="10.5" transform="rotate(0,457.5,395.5)"/><path d="M 447 469v 21h 21a 21 21, 0, 0, 0, -21 -21" transform="rotate(-90,457.5,479.5)"/><path d="M 447 490v 21h 21a 21 21, 0, 0, 0, -21 -21" transform="rotate(90,457.5,500.5)"/><path d="M 447 532v 21h 21a 21 21, 0, 0, 0, -21 -21" transform="rotate(-90,457.5,542.5)"/><path d="M 447 553v 21h 21a 21 21, 0, 0, 0, -21 -21" transform="rotate(180,457.5,563.5)"/><path d="M 447 658v 21h 10.5a 10.5 10.5, 0, 0, 0, 0 -21" transform="rotate(0,457.5,668.5)"/><circle cx="457.5" cy="752.5" r="10.5" transform="rotate(0,457.5,752.5)"/><rect x="447" y="784" width="21" height="21" transform="rotate(0,457.5,794.5)"/><path d="M 447 805v 21h 21a 21 21, 0, 0, 0, -21 -21" transform="rotate(90,457.5,815.5)"/><path d="M 468 154v 21h 21a 21 21, 0, 0, 0, -21 -21" transform="rotate(-90,478.5,164.5)"/><rect x="468" y="175" width="21" height="21" transform="rotate(0,478.5,185.5)"/><path d="M 468 196v 21h 10.5a 10.5 10.5, 0, 0, 0, 0 -21" transform="rotate(90,478.5,206.5)"/><path d="M 468 238v 21h 10.5a 10.5 10.5, 0, 0, 0, 0 -21" transform="rotate(180,478.5,248.5)"/><path d="M 468 322v 21h 21a 21 21, 0, 0, 0, -21 -21" transform="rotate(0,478.5,332.5)"/><path d="M 468 343v 21h 21a 21 21, 0, 0, 0, -21 -21" transform="rotate(180,478.5,353.5)"/><path d="M 468 406v 21h 21a 21 21, 0, 0, 0, -21 -21" transform="rotate(-90,478.5,416.5)"/><rect x="468" y="427" width="21" height="21" transform="rotate(0,478.5,437.5)"/><rect x="468" y="448" width="21" height="21" transform="rotate(0,478.5,458.5)"/><rect x="468" y="469" width="21" height="21" transform="rotate(0,478.5,479.5)"/><path d="M 468 511v 21h 21a 21 21, 0, 0, 0, -21 -21" transform="rotate(-90,478.5,521.5)"/><rect x="468" y="532" width="21" height="21" transform="rotate(0,478.5,542.5)"/><rect x="468" y="553" width="21" height="21" transform="rotate(0,478.5,563.5)"/><rect x="468" y="574" width="21" height="21" transform="rotate(0,478.5,584.5)"/><path d="M 468 595v 21h 10.5a 10.5 10.5, 0, 0, 0, 0 -21" transform="rotate(90,478.5,605.5)"/><path d="M 468 679v 21h 21a 21 21, 0, 0, 0, -21 -21" transform="rotate(-90,478.5,689.5)"/><rect x="468" y="700" width="21" height="21" transform="rotate(0,478.5,710.5)"/><path d="M 468 721v 21h 10.5a 10.5 10.5, 0, 0, 0, 0 -21" transform="rotate(90,478.5,731.5)"/><path d="M 468 784v 21h 10.5a 10.5 10.5, 0, 0, 0, 0 -21" transform="rotate(0,478.5,794.5)"/><rect x="489" y="154" width="21" height="21" transform="rotate(0,499.5,164.5)"/><rect x="489" y="238" width="21" height="21" transform="rotate(0,499.5,248.5)"/><rect x="489" y="259" width="21" height="21" transform="rotate(0,499.5,269.5)"/><path d="M 489 280v 21h 10.5a 10.5 10.5, 0, 0, 0, 0 -21" transform="rotate(90,499.5,290.5)"/><path d="M 489 343v 21h 10.5a 10.5 10.5, 0, 0, 0, 0 -21" transform="rotate(0,499.5,353.5)"/><path d="M 489 385v 21h 10.5a 10.5 10.5, 0, 0, 0, 0 -21" transform="rotate(-90,499.5,395.5)"/><rect x="489" y="406" width="21" height="21" transform="rotate(0,499.5,416.5)"/><rect x="489" y="427" width="21" height="21" transform="rotate(0,499.5,437.5)"/><rect x="489" y="448" width="21" height="21" transform="rotate(0,499.5,458.5)"/><rect x="489" y="469" width="21" height="21" transform="rotate(0,499.5,479.5)"/><rect x="489" y="511" width="21" height="21" transform="rotate(0,499.5,521.5)"/><rect x="489" y="532" width="21" height="21" transform="rotate(0,499.5,542.5)"/><rect x="489" y="553" width="21" height="21" transform="rotate(0,499.5,563.5)"/><circle cx="499.5" cy="626.5" r="10.5" transform="rotate(0,499.5,626.5)"/><path d="M 489 679v 21h 10.5a 10.5 10.5, 0, 0, 0, 0 -21" transform="rotate(0,499.5,689.5)"/><path d="M 489 742v 21h 10.5a 10.5 10.5, 0, 0, 0, 0 -21" transform="rotate(-90,499.5,752.5)"/><path d="M 489 763v 21h 21a 21 21, 0, 0, 0, -21 -21" transform="rotate(180,499.5,773.5)"/><rect x="510" y="154" width="21" height="21" transform="rotate(0,520.5,164.5)"/><path d="M 510 217v 21h 10.5a 10.5 10.5, 0, 0, 0, 0 -21" transform="rotate(-90,520.5,227.5)"/><rect x="510" y="238" width="21" height="21" transform="rotate(0,520.5,248.5)"/><path d="M 510 259v 21h 21a 21 21, 0, 0, 0, -21 -21" transform="rotate(90,520.5,269.5)"/><path d="M 510 301v 21h 10.5a 10.5 10.5, 0, 0, 0, 0 -21" transform="rotate(180,520.5,311.5)"/><circle cx="520.5" cy="374.5" r="10.5" transform="rotate(0,520.5,374.5)"/><rect x="510" y="406" width="21" height="21" transform="rotate(0,520.5,416.5)"/><rect x="510" y="427" width="21" height="21" transform="rotate(0,520.5,437.5)"/><rect x="510" y="469" width="21" height="21" transform="rotate(0,520.5,479.5)"/><rect x="510" y="490" width="21" height="21" transform="rotate(0,520.5,500.5)"/><path d="M 510 511v 21h 21a 21 21, 0, 0, 0, -21 -21" transform="rotate(90,520.5,521.5)"/><path d="M 510 553v 21h 21a 21 21, 0, 0, 0, -21 -21" transform="rotate(0,520.5,563.5)"/><rect x="510" y="574" width="21" height="21" transform="rotate(0,520.5,584.5)"/><path d="M 510 595v 21h 10.5a 10.5 10.5, 0, 0, 0, 0 -21" transform="rotate(90,520.5,605.5)"/><path d="M 510 637v 21h 10.5a 10.5 10.5, 0, 0, 0, 0 -21" transform="rotate(-90,520.5,647.5)"/><path d="M 510 658v 21h 10.5a 10.5 10.5, 0, 0, 0, 0 -21" transform="rotate(90,520.5,668.5)"/><path d="M 510 700v 21h 10.5a 10.5 10.5, 0, 0, 0, 0 -21" transform="rotate(-90,520.5,710.5)"/><path d="M 510 721v 21h 10.5a 10.5 10.5, 0, 0, 0, 0 -21" transform="rotate(90,520.5,731.5)"/><path d="M 510 763v 21h 21a 21 21, 0, 0, 0, -21 -21" transform="rotate(0,520.5,773.5)"/><rect x="510" y="784" width="21" height="21" transform="rotate(0,520.5,794.5)"/><rect x="510" y="805" width="21" height="21" transform="rotate(0,520.5,815.5)"/><path d="M 510 826v 21h 10.5a 10.5 10.5, 0, 0, 0, 0 -21" transform="rotate(90,520.5,836.5)"/><path d="M 531 154v 21h 21a 21 21, 0, 0, 0, -21 -21" transform="rotate(0,541.5,164.5)"/><rect x="531" y="175" width="21" height="21" transform="rotate(0,541.5,185.5)"/><path d="M 531 196v 21h 21a 21 21, 0, 0, 0, -21 -21" transform="rotate(180,541.5,206.5)"/><path d="M 531 280v 21h 10.5a 10.5 10.5, 0, 0, 0, 0 -21" transform="rotate(-90,541.5,290.5)"/><rect x="531" y="301" width="21" height="21" transform="rotate(0,541.5,311.5)"/><rect x="531" y="322" width="21" height="21" transform="rotate(0,541.5,332.5)"/><path d="M 531 343v 21h 21a 21 21, 0, 0, 0, -21 -21" transform="rotate(180,541.5,353.5)"/><path d="M 531 385v 21h 10.5a 10.5 10.5, 0, 0, 0, 0 -21" transform="rotate(-90,541.5,395.5)"/><rect x="531" y="406" width="21" height="21" transform="rotate(0,541.5,416.5)"/><rect x="531" y="427" width="21" height="21" transform="rotate(0,541.5,437.5)"/><rect x="531" y="448" width="21" height="21" transform="rotate(0,541.5,458.5)"/><rect x="531" y="469" width="21" height="21" transform="rotate(0,541.5,479.5)"/><path d="M 531 490v 21h 21a 21 21, 0, 0, 0, -21 -21" transform="rotate(90,541.5,500.5)"/><path d="M 531 532v 21h 10.5a 10.5 10.5, 0, 0, 0, 0 -21" transform="rotate(180,541.5,542.5)"/><path d="M 531 574v 21h 10.5a 10.5 10.5, 0, 0, 0, 0 -21" transform="rotate(0,541.5,584.5)"/><path d="M 531 616v 21h 10.5a 10.5 10.5, 0, 0, 0, 0 -21" transform="rotate(180,541.5,626.5)"/><path d="M 531 679v 21h 10.5a 10.5 10.5, 0, 0, 0, 0 -21" transform="rotate(180,541.5,689.5)"/><rect x="552" y="175" width="21" height="21" transform="rotate(0,562.5,185.5)"/><rect x="552" y="196" width="21" height="21" transform="rotate(0,562.5,206.5)"/><path d="M 552 217v 21h 21a 21 21, 0, 0, 0, -21 -21" transform="rotate(180,562.5,227.5)"/><path d="M 552 301v 21h 21a 21 21, 0, 0, 0, -21 -21" transform="rotate(0,562.5,311.5)"/><rect x="552" y="322" width="21" height="21" transform="rotate(0,562.5,332.5)"/><rect x="552" y="343" width="21" height="21" transform="rotate(0,562.5,353.5)"/><path d="M 552 364v 21h 10.5a 10.5 10.5, 0, 0, 0, 0 -21" transform="rotate(90,562.5,374.5)"/><rect x="552" y="406" width="21" height="21" transform="rotate(0,562.5,416.5)"/><path d="M 552 511v 21h 21a 21 21, 0, 0, 0, -21 -21" transform="rotate(-90,562.5,521.5)"/><rect x="552" y="532" width="21" height="21" transform="rotate(0,562.5,542.5)"/><path d="M 552 595v 21h 10.5a 10.5 10.5, 0, 0, 0, 0 -21" transform="rotate(-90,562.5,605.5)"/><path d="M 552 616v 21h 21a 21 21, 0, 0, 0, -21 -21" transform="rotate(90,562.5,626.5)"/><path d="M 552 658v 21h 10.5a 10.5 10.5, 0, 0, 0, 0 -21" transform="rotate(-90,562.5,668.5)"/><path d="M 552 679v 21h 21a 21 21, 0, 0, 0, -21 -21" transform="rotate(90,562.5,689.5)"/><circle cx="562.5" cy="731.5" r="10.5" transform="rotate(0,562.5,731.5)"/><path d="M 552 763v 21h 10.5a 10.5 10.5, 0, 0, 0, 0 -21" transform="rotate(-90,562.5,773.5)"/><path d="M 552 784v 21h 21a 21 21, 0, 0, 0, -21 -21" transform="rotate(180,562.5,794.5)"/><path d="M 573 175v 21h 10.5a 10.5 10.5, 0, 0, 0, 0 -21" transform="rotate(0,583.5,185.5)"/><rect x="573" y="217" width="21" height="21" transform="rotate(0,583.5,227.5)"/><circle cx="583.5" cy="290.5" r="10.5" transform="rotate(0,583.5,290.5)"/><path d="M 573 322v 21h 21a 21 21, 0, 0, 0, -21 -21" transform="rotate(0,583.5,332.5)"/><rect x="573" y="343" width="21" height="21" transform="rotate(0,583.5,353.5)"/><rect x="573" y="406" width="21" height="21" transform="rotate(0,583.5,416.5)"/><path d="M 573 427v 21h 21a 21 21, 0, 0, 0, -21 -21" transform="rotate(180,583.5,437.5)"/><path d="M 573 469v 21h 21a 21 21, 0, 0, 0, -21 -21" transform="rotate(-90,583.5,479.5)"/><rect x="573" y="490" width="21" height="21" transform="rotate(0,583.5,500.5)"/><rect x="573" y="511" width="21" height="21" transform="rotate(0,583.5,521.5)"/><rect x="573" y="532" width="21" height="21" transform="rotate(0,583.5,542.5)"/><path d="M 573 553v 21h 10.5a 10.5 10.5, 0, 0, 0, 0 -21" transform="rotate(90,583.5,563.5)"/><circle cx="583.5" cy="752.5" r="10.5" transform="rotate(0,583.5,752.5)"/><path d="M 573 784v 21h 10.5a 10.5 10.5, 0, 0, 0, 0 -21" transform="rotate(0,583.5,794.5)"/><path d="M 573 826v 21h 10.5a 10.5 10.5, 0, 0, 0, 0 -21" transform="rotate(180,583.5,836.5)"/><path d="M 594 154v 21h 10.5a 10.5 10.5, 0, 0, 0, 0 -21" transform="rotate(180,604.5,164.5)"/><path d="M 594 217v 21h 21a 21 21, 0, 0, 0, -21 -21" transform="rotate(0,604.5,227.5)"/><path d="M 594 238v 21h 10.5a 10.5 10.5, 0, 0, 0, 0 -21" transform="rotate(90,604.5,248.5)"/><rect x="594" y="343" width="21" height="21" transform="rotate(0,604.5,353.5)"/><rect x="594" y="364" width="21" height="21" transform="rotate(0,604.5,374.5)"/><rect x="594" y="385" width="21" height="21" transform="rotate(0,604.5,395.5)"/><rect x="594" y="406" width="21" height="21" transform="rotate(0,604.5,416.5)"/><rect x="594" y="427" width="21" height="21" transform="rotate(0,604.5,437.5)"/><rect x="594" y="448" width="21" height="21" transform="rotate(0,604.5,458.5)"/><rect x="594" y="469" width="21" height="21" transform="rotate(0,604.5,479.5)"/><path d="M 594 532v 21h 10.5a 10.5 10.5, 0, 0, 0, 0 -21" transform="rotate(0,604.5,542.5)"/><path d="M 594 595v 21h 21a 21 21, 0, 0, 0, -21 -21" transform="rotate(-90,604.5,605.5)"/><rect x="594" y="616" width="21" height="21" transform="rotate(0,604.5,626.5)"/><rect x="594" y="637" width="21" height="21" transform="rotate(0,604.5,647.5)"/><rect x="594" y="658" width="21" height="21" transform="rotate(0,604.5,668.5)"/><rect x="594" y="679" width="21" height="21" transform="rotate(0,604.5,689.5)"/><rect x="594" y="700" width="21" height="21" transform="rotate(0,604.5,710.5)"/><path d="M 594 721v 21h 10.5a 10.5 10.5, 0, 0, 0, 0 -21" transform="rotate(90,604.5,731.5)"/><path d="M 594 805v 21h 10.5a 10.5 10.5, 0, 0, 0, 0 -21" transform="rotate(-90,604.5,815.5)"/><path d="M 594 826v 21h 21a 21 21, 0, 0, 0, -21 -21" transform="rotate(90,604.5,836.5)"/><rect x="615" y="154" width="21" height="21" transform="rotate(0,625.5,164.5)"/><path d="M 615 196v 21h 10.5a 10.5 10.5, 0, 0, 0, 0 -21" transform="rotate(180,625.5,206.5)"/><path d="M 615 259v 21h 10.5a 10.5 10.5, 0, 0, 0, 0 -21" transform="rotate(-90,625.5,269.5)"/><path d="M 615 280v 21h 10.5a 10.5 10.5, 0, 0, 0, 0 -21" transform="rotate(90,625.5,290.5)"/><path d="M 615 322v 21h 21a 21 21, 0, 0, 0, -21 -21" transform="rotate(-90,625.5,332.5)"/><rect x="615" y="343" width="21" height="21" transform="rotate(0,625.5,353.5)"/><path d="M 615 427v 21h 10.5a 10.5 10.5, 0, 0, 0, 0 -21" transform="rotate(0,625.5,437.5)"/><path d="M 615 469v 21h 21a 21 21, 0, 0, 0, -21 -21" transform="rotate(0,625.5,479.5)"/><rect x="615" y="490" width="21" height="21" transform="rotate(0,625.5,500.5)"/><path d="M 615 511v 21h 21a 21 21, 0, 0, 0, -21 -21" transform="rotate(180,625.5,521.5)"/><rect x="615" y="595" width="21" height="21" transform="rotate(0,625.5,605.5)"/><path d="M 615 784v 21h 10.5a 10.5 10.5, 0, 0, 0, 0 -21" transform="rotate(180,625.5,794.5)"/><rect x="636" y="154" width="21" height="21" transform="rotate(0,646.5,164.5)"/><path d="M 636 196v 21h 10.5a 10.5 10.5, 0, 0, 0, 0 -21" transform="rotate(0,646.5,206.5)"/><path d="M 636 301v 21h 21a 21 21, 0, 0, 0, -21 -21" transform="rotate(-90,646.5,311.5)"/><rect x="636" y="322" width="21" height="21" transform="rotate(0,646.5,332.5)"/><rect x="636" y="343" width="21" height="21" transform="rotate(0,646.5,353.5)"/><path d="M 636 364v 21h 10.5a 10.5 10.5, 0, 0, 0, 0 -21" transform="rotate(90,646.5,374.5)"/><circle cx="646.5" cy="416.5" r="10.5" transform="rotate(0,646.5,416.5)"/><circle cx="646.5" cy="458.5" r="10.5" transform="rotate(0,646.5,458.5)"/><rect x="636" y="490" width="21" height="21" transform="rotate(0,646.5,500.5)"/><rect x="636" y="511" width="21" height="21" transform="rotate(0,646.5,521.5)"/><path d="M 636 532v 21h 21a 21 21, 0, 0, 0, -21 -21" transform="rotate(180,646.5,542.5)"/><path d="M 636 574v 21h 21a 21 21, 0, 0, 0, -21 -21" transform="rotate(-90,646.5,584.5)"/><rect x="636" y="595" width="21" height="21" transform="rotate(0,646.5,605.5)"/><rect x="636" y="616" width="21" height="21" transform="rotate(0,646.5,626.5)"/><rect x="636" y="637" width="21" height="21" transform="rotate(0,646.5,647.5)"/><rect x="636" y="658" width="21" height="21" transform="rotate(0,646.5,668.5)"/><rect x="636" y="679" width="21" height="21" transform="rotate(0,646.5,689.5)"/><rect x="636" y="700" width="21" height="21" transform="rotate(0,646.5,710.5)"/><path d="M 636 721v 21h 21a 21 21, 0, 0, 0, -21 -21" transform="rotate(180,646.5,731.5)"/><path d="M 636 784v 21h 10.5a 10.5 10.5, 0, 0, 0, 0 -21" transform="rotate(0,646.5,794.5)"/><path d="M 636 826v 21h 10.5a 10.5 10.5, 0, 0, 0, 0 -21" transform="rotate(180,646.5,836.5)"/><path d="M 657 154v 21h 10.5a 10.5 10.5, 0, 0, 0, 0 -21" transform="rotate(0,667.5,164.5)"/><path d="M 657 217v 21h 10.5a 10.5 10.5, 0, 0, 0, 0 -21" transform="rotate(-90,667.5,227.5)"/><rect x="657" y="238" width="21" height="21" transform="rotate(0,667.5,248.5)"/><rect x="657" y="259" width="21" height="21" transform="rotate(0,667.5,269.5)"/><rect x="657" y="280" width="21" height="21" transform="rotate(0,667.5,290.5)"/><rect x="657" y="301" width="21" height="21" transform="rotate(0,667.5,311.5)"/><rect x="657" y="322" width="21" height="21" transform="rotate(0,667.5,332.5)"/><path d="M 657 343v 21h 21a 21 21, 0, 0, 0, -21 -21" transform="rotate(90,667.5,353.5)"/><path d="M 657 469v 21h 10.5a 10.5 10.5, 0, 0, 0, 0 -21" transform="rotate(-90,667.5,479.5)"/><rect x="657" y="490" width="21" height="21" transform="rotate(0,667.5,500.5)"/><rect x="657" y="532" width="21" height="21" transform="rotate(0,667.5,542.5)"/><path d="M 657 574v 21h 21a 21 21, 0, 0, 0, -21 -21" transform="rotate(0,667.5,584.5)"/><rect x="657" y="595" width="21" height="21" transform="rotate(0,667.5,605.5)"/><path d="M 657 616v 21h 21a 21 21, 0, 0, 0, -21 -21" transform="rotate(90,667.5,626.5)"/><rect x="657" y="658" width="21" height="21" transform="rotate(0,667.5,668.5)"/><rect x="657" y="679" width="21" height="21" transform="rotate(0,667.5,689.5)"/><rect x="657" y="700" width="21" height="21" transform="rotate(0,667.5,710.5)"/><rect x="657" y="721" width="21" height="21" transform="rotate(0,667.5,731.5)"/><rect x="657" y="742" width="21" height="21" transform="rotate(0,667.5,752.5)"/><path d="M 657 763v 21h 10.5a 10.5 10.5, 0, 0, 0, 0 -21" transform="rotate(90,667.5,773.5)"/><rect x="657" y="826" width="21" height="21" transform="rotate(0,667.5,836.5)"/><rect x="678" y="322" width="21" height="21" transform="rotate(0,688.5,332.5)"/><path d="M 678 364v 21h 21a 21 21, 0, 0, 0, -21 -21" transform="rotate(-90,688.5,374.5)"/><path d="M 678 385v 21h 10.5a 10.5 10.5, 0, 0, 0, 0 -21" transform="rotate(90,688.5,395.5)"/><path d="M 678 427v 21h 21a 21 21, 0, 0, 0, -21 -21" transform="rotate(-90,688.5,437.5)"/><path d="M 678 448v 21h 21a 21 21, 0, 0, 0, -21 -21" transform="rotate(180,688.5,458.5)"/><rect x="678" y="490" width="21" height="21" transform="rotate(0,688.5,500.5)"/><path d="M 678 532v 21h 21a 21 21, 0, 0, 0, -21 -21" transform="rotate(0,688.5,542.5)"/><path d="M 678 553v 21h 10.5a 10.5 10.5, 0, 0, 0, 0 -21" transform="rotate(90,688.5,563.5)"/><rect x="678" y="595" width="21" height="21" transform="rotate(0,688.5,605.5)"/><path d="M 678 637v 21h 21a 21 21, 0, 0, 0, -21 -21" transform="rotate(-90,688.5,647.5)"/><rect x="678" y="658" width="21" height="21" transform="rotate(0,688.5,668.5)"/><rect x="678" y="742" width="21" height="21" transform="rotate(0,688.5,752.5)"/><path d="M 678 784v 21h 10.5a 10.5 10.5, 0, 0, 0, 0 -21" transform="rotate(-90,688.5,794.5)"/><rect x="678" y="805" width="21" height="21" transform="rotate(0,688.5,815.5)"/><path d="M 678 826v 21h 21a 21 21, 0, 0, 0, -21 -21" transform="rotate(90,688.5,836.5)"/><rect x="699" y="322" width="21" height="21" transform="rotate(0,709.5,332.5)"/><path d="M 699 364v 21h 10.5a 10.5 10.5, 0, 0, 0, 0 -21" transform="rotate(0,709.5,374.5)"/><path d="M 699 406v 21h 10.5a 10.5 10.5, 0, 0, 0, 0 -21" transform="rotate(-90,709.5,416.5)"/><rect x="699" y="427" width="21" height="21" transform="rotate(0,709.5,437.5)"/><rect x="699" y="448" width="21" height="21" transform="rotate(0,709.5,458.5)"/><rect x="699" y="469" width="21" height="21" transform="rotate(0,709.5,479.5)"/><rect x="699" y="490" width="21" height="21" transform="rotate(0,709.5,500.5)"/><path d="M 699 511v 21h 10.5a 10.5 10.5, 0, 0, 0, 0 -21" transform="rotate(90,709.5,521.5)"/><rect x="699" y="595" width="21" height="21" transform="rotate(0,709.5,605.5)"/><rect x="699" y="616" width="21" height="21" transform="rotate(0,709.5,626.5)"/><rect x="699" y="637" width="21" height="21" transform="rotate(0,709.5,647.5)"/><rect x="699" y="658" width="21" height="21" transform="rotate(0,709.5,668.5)"/><circle cx="709.5" cy="710.5" r="10.5" transform="rotate(0,709.5,710.5)"/><rect x="699" y="742" width="21" height="21" transform="rotate(0,709.5,752.5)"/><rect x="720" y="322" width="21" height="21" transform="rotate(0,730.5,332.5)"/><path d="M 720 343v 21h 10.5a 10.5 10.5, 0, 0, 0, 0 -21" transform="rotate(90,730.5,353.5)"/><path d="M 720 385v 21h 10.5a 10.5 10.5, 0, 0, 0, 0 -21" transform="rotate(180,730.5,395.5)"/><path d="M 720 427v 21h 10.5a 10.5 10.5, 0, 0, 0, 0 -21" transform="rotate(0,730.5,437.5)"/><path d="M 720 595v 21h 21a 21 21, 0, 0, 0, -21 -21" transform="rotate(0,730.5,605.5)"/><rect x="720" y="616" width="21" height="21" transform="rotate(0,730.5,626.5)"/><rect x="720" y="658" width="21" height="21" transform="rotate(0,730.5,668.5)"/><rect x="720" y="742" width="21" height="21" transform="rotate(0,730.5,752.5)"/><rect x="720" y="763" width="21" height="21" transform="rotate(0,730.5,773.5)"/><path d="M 720 784v 21h 10.5a 10.5 10.5, 0, 0, 0, 0 -21" transform="rotate(90,730.5,794.5)"/><circle cx="730.5" cy="836.5" r="10.5" transform="rotate(0,730.5,836.5)"/><rect x="741" y="322" width="21" height="21" transform="rotate(0,751.5,332.5)"/><rect x="741" y="385" width="21" height="21" transform="rotate(0,751.5,395.5)"/><circle cx="751.5" cy="521.5" r="10.5" transform="rotate(0,751.5,521.5)"/><circle cx="751.5" cy="584.5" r="10.5" transform="rotate(0,751.5,584.5)"/><path d="M 741 616v 21h 10.5a 10.5 10.5, 0, 0, 0, 0 -21" transform="rotate(0,751.5,626.5)"/><rect x="741" y="658" width="21" height="21" transform="rotate(0,751.5,668.5)"/><rect x="741" y="679" width="21" height="21" transform="rotate(0,751.5,689.5)"/><rect x="741" y="700" width="21" height="21" transform="rotate(0,751.5,710.5)"/><rect x="741" y="721" width="21" height="21" transform="rotate(0,751.5,731.5)"/><rect x="741" y="742" width="21" height="21" transform="rotate(0,751.5,752.5)"/><circle cx="751.5" cy="815.5" r="10.5" transform="rotate(0,751.5,815.5)"/><rect x="762" y="322" width="21" height="21" transform="rotate(0,772.5,332.5)"/><path d="M 762 343v 21h 21a 21 21, 0, 0, 0, -21 -21" transform="rotate(180,772.5,353.5)"/><path d="M 762 385v 21h 21a 21 21, 0, 0, 0, -21 -21" transform="rotate(0,772.5,395.5)"/><rect x="762" y="406" width="21" height="21" transform="rotate(0,772.5,416.5)"/><path d="M 762 427v 21h 21a 21 21, 0, 0, 0, -21 -21" transform="rotate(180,772.5,437.5)"/><path d="M 762 490v 21h 10.5a 10.5 10.5, 0, 0, 0, 0 -21" transform="rotate(180,772.5,500.5)"/><circle cx="772.5" cy="563.5" r="10.5" transform="rotate(0,772.5,563.5)"/><path d="M 762 595v 21h 10.5a 10.5 10.5, 0, 0, 0, 0 -21" transform="rotate(180,772.5,605.5)"/><path d="M 762 658v 21h 10.5a 10.5 10.5, 0, 0, 0, 0 -21" transform="rotate(0,772.5,668.5)"/><path d="M 762 742v 21h 21a 21 21, 0, 0, 0, -21 -21" transform="rotate(0,772.5,752.5)"/><rect x="762" y="763" width="21" height="21" transform="rotate(0,772.5,773.5)"/><path d="M 762 784v 21h 10.5a 10.5 10.5, 0, 0, 0, 0 -21" transform="rotate(90,772.5,794.5)"/><circle cx="772.5" cy="836.5" r="10.5" transform="rotate(0,772.5,836.5)"/><rect x="783" y="322" width="21" height="21" transform="rotate(0,793.5,332.5)"/><rect x="783" y="343" width="21" height="21" transform="rotate(0,793.5,353.5)"/><path d="M 783 364v 21h 21a 21 21, 0, 0, 0, -21 -21" transform="rotate(180,793.5,374.5)"/><path d="M 783 406v 21h 21a 21 21, 0, 0, 0, -21 -21" transform="rotate(0,793.5,416.5)"/><rect x="783" y="427" width="21" height="21" transform="rotate(0,793.5,437.5)"/><path d="M 783 469v 21h 21a 21 21, 0, 0, 0, -21 -21" transform="rotate(-90,793.5,479.5)"/><rect x="783" y="490" width="21" height="21" transform="rotate(0,793.5,500.5)"/><path d="M 783 511v 21h 10.5a 10.5 10.5, 0, 0, 0, 0 -21" transform="rotate(90,793.5,521.5)"/><path d="M 783 574v 21h 21a 21 21, 0, 0, 0, -21 -21" transform="rotate(-90,793.5,584.5)"/><rect x="783" y="595" width="21" height="21" transform="rotate(0,793.5,605.5)"/><path d="M 783 616v 21h 10.5a 10.5 10.5, 0, 0, 0, 0 -21" transform="rotate(90,793.5,626.5)"/><path d="M 783 679v 21h 21a 21 21, 0, 0, 0, -21 -21" transform="rotate(-90,793.5,689.5)"/><rect x="783" y="700" width="21" height="21" transform="rotate(0,793.5,710.5)"/><path d="M 783 721v 21h 21a 21 21, 0, 0, 0, -21 -21" transform="rotate(180,793.5,731.5)"/><path d="M 804 322v 21h 21a 21 21, 0, 0, 0, -21 -21" transform="rotate(0,814.5,332.5)"/><rect x="804" y="343" width="21" height="21" transform="rotate(0,814.5,353.5)"/><rect x="804" y="364" width="21" height="21" transform="rotate(0,814.5,374.5)"/><path d="M 804 427v 21h 21a 21 21, 0, 0, 0, -21 -21" transform="rotate(0,814.5,437.5)"/><rect x="804" y="448" width="21" height="21" transform="rotate(0,814.5,458.5)"/><rect x="804" y="469" width="21" height="21" transform="rotate(0,814.5,479.5)"/><path d="M 804 490v 21h 21a 21 21, 0, 0, 0, -21 -21" transform="rotate(90,814.5,500.5)"/><rect x="804" y="574" width="21" height="21" transform="rotate(0,814.5,584.5)"/><path d="M 804 595v 21h 21a 21 21, 0, 0, 0, -21 -21" transform="rotate(90,814.5,605.5)"/><rect x="804" y="679" width="21" height="21" transform="rotate(0,814.5,689.5)"/><rect x="804" y="721" width="21" height="21" transform="rotate(0,814.5,731.5)"/><rect x="804" y="742" width="21" height="21" transform="rotate(0,814.5,752.5)"/><rect x="804" y="763" width="21" height="21" transform="rotate(0,814.5,773.5)"/><path d="M 804 784v 21h 21a 21 21, 0, 0, 0, -21 -21" transform="rotate(180,814.5,794.5)"/><path d="M 825 364v 21h 10.5a 10.5 10.5, 0, 0, 0, 0 -21" transform="rotate(0,835.5,374.5)"/><path d="M 825 469v 21h 10.5a 10.5 10.5, 0, 0, 0, 0 -21" transform="rotate(0,835.5,479.5)"/><circle cx="835.5" cy="542.5" r="10.5" transform="rotate(0,835.5,542.5)"/><path d="M 825 574v 21h 10.5a 10.5 10.5, 0, 0, 0, 0 -21" transform="rotate(0,835.5,584.5)"/><path d="M 825 637v 21h 10.5a 10.5 10.5, 0, 0, 0, 0 -21" transform="rotate(-90,835.5,647.5)"/><rect x="825" y="658" width="21" height="21" transform="rotate(0,835.5,668.5)"/><path d="M 825 679v 21h 21a 21 21, 0, 0, 0, -21 -21" transform="rotate(90,835.5,689.5)"/><path d="M 825 721v 21h 10.5a 10.5 10.5, 0, 0, 0, 0 -21" transform="rotate(0,835.5,731.5)"/><path d="M 825 784v 21h 21a 21 21, 0, 0, 0, -21 -21" transform="rotate(0,835.5,794.5)"/><path d="M 825 805v 21h 10.5a 10.5 10.5, 0, 0, 0, 0 -21" transform="rotate(90,835.5,815.5)"/></clipPath><clipPath id="clip-path-corners-square-color-0-0"><path d="M 153 154v 21h 21a 21 21, 0, 0, 0, -21 -21" transform="rotate(-90,163.5,164.5)"/><rect x="153" y="175" width="21" height="21" transform="rotate(0,163.5,185.5)"/><rect x="153" y="196" width="21" height="21" transform="rotate(0,163.5,206.5)"/><rect x="153" y="217" width="21" height="21" transform="rotate(0,163.5,227.5)"/><rect x="153" y="238" width="21" height="21" transform="rotate(0,163.5,248.5)"/><rect x="153" y="259" width="21" height="21" transform="rotate(0,163.5,269.5)"/><path d="M 153 280v 21h 21a 21 21, 0, 0, 0, -21 -21" transform="rotate(180,163.5,290.5)"/><rect x="174" y="154" width="21" height="21" transform="rotate(0,184.5,164.5)"/><rect x="174" y="280" width="21" height="21" transform="rotate(0,184.5,290.5)"/><rect x="195" y="154" width="21" height="21" transform="rotate(0,205.5,164.5)"/><rect x="195" y="280" width="21" height="21" transform="rotate(0,205.5,290.5)"/><rect x="216" y="154" width="21" height="21" transform="rotate(0,226.5,164.5)"/><rect x="216" y="280" width="21" height="21" transform="rotate(0,226.5,290.5)"/><rect x="237" y="154" width="21" height="21" transform="rotate(0,247.5,164.5)"/><rect x="237" y="280" width="21" height="21" transform="rotate(0,247.5,290.5)"/><rect x="258" y="154" width="21" height="21" transform="rotate(0,268.5,164.5)"/><rect x="258" y="280" width="21" height="21" transform="rotate(0,268.5,290.5)"/><path d="M 279 154v 21h 21a 21 21, 0, 0, 0, -21 -21" transform="rotate(0,289.5,164.5)"/><rect x="279" y="175" width="21" height="21" transform="rotate(0,289.5,185.5)"/><rect x="279" y="196" width="21" height="21" transform="rotate(0,289.5,206.5)"/><rect x="279" y="217" width="21" height="21" transform="rotate(0,289.5,227.5)"/><rect x="279" y="238" width="21" height="21" transform="rotate(0,289.5,248.5)"/><rect x="279" y="259" width="21" height="21" transform="rotate(0,289.5,269.5)"/><path d="M 279 280v 21h 21a 21 21, 0, 0, 0, -21 -21" transform="rotate(90,289.5,290.5)"/></clipPath><clipPath id="clip-path-corners-dot-color-0-0"><path d="M 195 196v 21h 21a 21 21, 0, 0, 0, -21 -21" transform="rotate(-90,205.5,206.5)"/><rect x="195" y="217" width="21" height="21" transform="rotate(0,205.5,227.5)"/><path d="M 195 238v 21h 21a 21 21, 0, 0, 0, -21 -21" transform="rotate(180,205.5,248.5)"/><rect x="216" y="196" width="21" height="21" transform="rotate(0,226.5,206.5)"/><rect x="216" y="217" width="21" height="21" transform="rotate(0,226.5,227.5)"/><rect x="216" y="238" width="21" height="21" transform="rotate(0,226.5,248.5)"/><path d="M 237 196v 21h 21a 21 21, 0, 0, 0, -21 -21" transform="rotate(0,247.5,206.5)"/><rect x="237" y="217" width="21" height="21" transform="rotate(0,247.5,227.5)"/><path d="M 237 238v 21h 21a 21 21, 0, 0, 0, -21 -21" transform="rotate(90,247.5,248.5)"/></clipPath><clipPath id="clip-path-corners-square-color-1-0"><path d="M 699 154v 21h 21a 21 21, 0, 0, 0, -21 -21" transform="rotate(-90,709.5,164.5)"/><rect x="699" y="175" width="21" height="21" transform="rotate(0,709.5,185.5)"/><rect x="699" y="196" width="21" height="21" transform="rotate(0,709.5,206.5)"/><rect x="699" y="217" width="21" height="21" transform="rotate(0,709.5,227.5)"/><rect x="699" y="238" width="21" height="21" transform="rotate(0,709.5,248.5)"/><rect x="699" y="259" width="21" height="21" transform="rotate(0,709.5,269.5)"/><path d="M 699 280v 21h 21a 21 21, 0, 0, 0, -21 -21" transform="rotate(180,709.5,290.5)"/><rect x="720" y="154" width="21" height="21" transform="rotate(0,730.5,164.5)"/><rect x="720" y="280" width="21" height="21" transform="rotate(0,730.5,290.5)"/><rect x="741" y="154" width="21" height="21" transform="rotate(0,751.5,164.5)"/><rect x="741" y="280" width="21" height="21" transform="rotate(0,751.5,290.5)"/><rect x="762" y="154" width="21" height="21" transform="rotate(0,772.5,164.5)"/><rect x="762" y="280" width="21" height="21" transform="rotate(0,772.5,290.5)"/><rect x="783" y="154" width="21" height="21" transform="rotate(0,793.5,164.5)"/><rect x="783" y="280" width="21" height="21" transform="rotate(0,793.5,290.5)"/><rect x="804" y="154" width="21" height="21" transform="rotate(0,814.5,164.5)"/><rect x="804" y="280" width="21" height="21" transform="rotate(0,814.5,290.5)"/><path d="M 825 154v 21h 21a 21 21, 0, 0, 0, -21 -21" transform="rotate(0,835.5,164.5)"/><rect x="825" y="175" width="21" height="21" transform="rotate(0,835.5,185.5)"/><rect x="825" y="196" width="21" height="21" transform="rotate(0,835.5,206.5)"/><rect x="825" y="217" width="21" height="21" transform="rotate(0,835.5,227.5)"/><rect x="825" y="238" width="21" height="21" transform="rotate(0,835.5,248.5)"/><rect x="825" y="259" width="21" height="21" transform="rotate(0,835.5,269.5)"/><path d="M 825 280v 21h 21a 21 21, 0, 0, 0, -21 -21" transform="rotate(90,835.5,290.5)"/></clipPath><clipPath id="clip-path-corners-dot-color-1-0"><path d="M 741 196v 21h 21a 21 21, 0, 0, 0, -21 -21" transform="rotate(-90,751.5,206.5)"/><rect x="741" y="217" width="21" height="21" transform="rotate(0,751.5,227.5)"/><path d="M 741 238v 21h 21a 21 21, 0, 0, 0, -21 -21" transform="rotate(180,751.5,248.5)"/><rect x="762" y="196" width="21" height="21" transform="rotate(0,772.5,206.5)"/><rect x="762" y="217" width="21" height="21" transform="rotate(0,772.5,227.5)"/><rect x="762" y="238" width="21" height="21" transform="rotate(0,772.5,248.5)"/><path d="M 783 196v 21h 21a 21 21, 0, 0, 0, -21 -21" transform="rotate(0,793.5,206.5)"/><rect x="783" y="217" width="21" height="21" transform="rotate(0,793.5,227.5)"/><path d="M 783 238v 21h 21a 21 21, 0, 0, 0, -21 -21" transform="rotate(90,793.5,248.5)"/></clipPath><clipPath id="clip-path-corners-square-color-0-1"><path d="M 153 700v 21h 21a 21 21, 0, 0, 0, -21 -21" transform="rotate(-90,163.5,710.5)"/><rect x="153" y="721" width="21" height="21" transform="rotate(0,163.5,731.5)"/><rect x="153" y="742" width="21" height="21" transform="rotate(0,163.5,752.5)"/><rect x="153" y="763" width="21" height="21" transform="rotate(0,163.5,773.5)"/><rect x="153" y="784" width="21" height="21" transform="rotate(0,163.5,794.5)"/><rect x="153" y="805" width="21" height="21" transform="rotate(0,163.5,815.5)"/><path d="M 153 826v 21h 21a 21 21, 0, 0, 0, -21 -21" transform="rotate(180,163.5,836.5)"/><rect x="174" y="700" width="21" height="21" transform="rotate(0,184.5,710.5)"/><rect x="174" y="826" width="21" height="21" transform="rotate(0,184.5,836.5)"/><rect x="195" y="700" width="21" height="21" transform="rotate(0,205.5,710.5)"/><rect x="195" y="826" width="21" height="21" transform="rotate(0,205.5,836.5)"/><rect x="216" y="700" width="21" height="21" transform="rotate(0,226.5,710.5)"/><rect x="216" y="826" width="21" height="21" transform="rotate(0,226.5,836.5)"/><rect x="237" y="700" width="21" height="21" transform="rotate(0,247.5,710.5)"/><rect x="237" y="826" width="21" height="21" transform="rotate(0,247.5,836.5)"/><rect x="258" y="700" width="21" height="21" transform="rotate(0,268.5,710.5)"/><rect x="258" y="826" width="21" height="21" transform="rotate(0,268.5,836.5)"/><path d="M 279 700v 21h 21a 21 21, 0, 0, 0, -21 -21" transform="rotate(0,289.5,710.5)"/><rect x="279" y="721" width="21" height="21" transform="rotate(0,289.5,731.5)"/><rect x="279" y="742" width="21" height="21" transform="rotate(0,289.5,752.5)"/><rect x="279" y="763" width="21" height="21" transform="rotate(0,289.5,773.5)"/><rect x="279" y="784" width="21" height="21" transform="rotate(0,289.5,794.5)"/><rect x="279" y="805" width="21" height="21" transform="rotate(0,289.5,815.5)"/><path d="M 279 826v 21h 21a 21 21, 0, 0, 0, -21 -21" transform="rotate(90,289.5,836.5)"/></clipPath><clipPath id="clip-path-corners-dot-color-0-1"><path d="M 195 742v 21h 21a 21 21, 0, 0, 0, -21 -21" transform="rotate(-90,205.5,752.5)"/><rect x="195" y="763" width="21" height="21" transform="rotate(0,205.5,773.5)"/><path d="M 195 784v 21h 21a 21 21, 0, 0, 0, -21 -21" transform="rotate(180,205.5,794.5)"/><rect x="216" y="742" width="21" height="21" transform="rotate(0,226.5,752.5)"/><rect x="216" y="763" width="21" height="21" transform="rotate(0,226.5,773.5)"/><rect x="216" y="784" width="21" height="21" transform="rotate(0,226.5,794.5)"/><path d="M 237 742v 21h 21a 21 21, 0, 0, 0, -21 -21" transform="rotate(0,247.5,752.5)"/><rect x="237" y="763" width="21" height="21" transform="rotate(0,247.5,773.5)"/><path d="M 237 784v 21h 21a 21 21, 0, 0, 0, -21 -21" transform="rotate(90,247.5,794.5)"/></clipPath></defs><defs/><text x="50%" y="1080" fill="#000000" dominant-baseline="middle" text-anchor="middle" font-family="sans-serif" font-size="90" font-weight="600">Address</text><rect x="112" y="112" height="777" width="776" clip-path="url('#clip-path-background-color')" fill="#ffffff"/><rect x="153" y="154" height="693" width="693" clip-path="url('#clip-path-dot-color')" fill="#000000"/><rect x="153" y="154" height="147" width="147" clip-path="url('#clip-path-corners-square-color-0-0')" fill="#000000"/><rect x="195" y="196" height="63" width="63" clip-path="url('#clip-path-corners-dot-color-0-0')" fill="#000000"/><rect x="699" y="154" height="147" width="147" clip-path="url('#clip-path-corners-square-color-1-0')" fill="#000000"/><rect x="741" y="196" height="63" width="63" clip-path="url('#clip-path-corners-dot-color-1-0')" fill="#000000"/><rect x="153" y="700" height="147" width="147" clip-path="url('#clip-path-corners-square-color-0-1')" fill="#000000"/><rect x="195" y="742" height="63" width="63" clip-path="url('#clip-path-corners-dot-color-0-1')" fill="#000000"/></svg>